<mxfile host="app.diagrams.net" modified="2024-05-29T06:30:44.028Z" agent="Mozilla/5.0 (Windows NT 10.0; Win64; x64) AppleWebKit/537.36 (KHTML, like Gecko) Chrome/123.0.0.0 Safari/537.36 OPR/109.0.0.0" etag="UXYhDhWjE5ZcSXeSq1zK" version="24.4.9" type="google">
  <diagram name="Page-1" id="jnddEITmXgnFTlJOGYRZ">
    <mxGraphModel grid="1" page="1" gridSize="10" guides="1" tooltips="1" connect="1" arrows="1" fold="1" pageScale="1" pageWidth="1600" pageHeight="900" math="0" shadow="0">
      <root>
        <mxCell id="0" />
        <mxCell id="1" parent="0" />
        <mxCell id="HpFK4DaO_GkTzXo1oFfo-5" style="edgeStyle=orthogonalEdgeStyle;rounded=0;orthogonalLoop=1;jettySize=auto;html=1;" edge="1" parent="1" source="HwtGYQ5i5tDPhQxPfWXK-1">
          <mxGeometry relative="1" as="geometry">
            <mxPoint x="1090" y="-35" as="targetPoint" />
          </mxGeometry>
        </mxCell>
        <mxCell id="HpFK4DaO_GkTzXo1oFfo-30" value="Нажата кнопка&lt;div&gt;&quot;Выбрать файл&quot;&lt;/div&gt;" style="edgeLabel;html=1;align=center;verticalAlign=middle;resizable=0;points=[];" connectable="0" vertex="1" parent="HpFK4DaO_GkTzXo1oFfo-5">
          <mxGeometry x="-0.1178" relative="1" as="geometry">
            <mxPoint x="6" y="-25" as="offset" />
          </mxGeometry>
        </mxCell>
        <mxCell id="HpFK4DaO_GkTzXo1oFfo-26" style="edgeStyle=orthogonalEdgeStyle;rounded=0;orthogonalLoop=1;jettySize=auto;html=1;entryX=0.5;entryY=0;entryDx=0;entryDy=0;" edge="1" parent="1" source="HwtGYQ5i5tDPhQxPfWXK-1" target="HpFK4DaO_GkTzXo1oFfo-20">
          <mxGeometry relative="1" as="geometry" />
        </mxCell>
        <mxCell id="HpFK4DaO_GkTzXo1oFfo-29" value="Неудачная попытка подгрузить файл" style="edgeLabel;html=1;align=center;verticalAlign=middle;resizable=0;points=[];" connectable="0" vertex="1" parent="HpFK4DaO_GkTzXo1oFfo-26">
          <mxGeometry x="0.602" y="-1" relative="1" as="geometry">
            <mxPoint x="13" y="-16" as="offset" />
          </mxGeometry>
        </mxCell>
        <mxCell id="HwtGYQ5i5tDPhQxPfWXK-1" value="" style="rounded=0;whiteSpace=wrap;html=1;flipV=1;flipH=1;fillColor=none;strokeWidth=2;" vertex="1" parent="1">
          <mxGeometry x="630" y="-150" width="360" height="230" as="geometry" />
        </mxCell>
        <mxCell id="HpFK4DaO_GkTzXo1oFfo-1" value="&lt;div style=&quot;font-size: 11px;&quot;&gt;&lt;font style=&quot;font-size: 11px;&quot;&gt;&lt;br&gt;&lt;/font&gt;&lt;/div&gt;&lt;div style=&quot;font-size: 11px;&quot;&gt;&lt;font style=&quot;font-size: 11px;&quot;&gt;&lt;br&gt;&lt;/font&gt;&lt;/div&gt;&lt;div style=&quot;font-size: 11px;&quot;&gt;&lt;font style=&quot;font-size: 11px;&quot;&gt;&lt;br&gt;&lt;/font&gt;&lt;/div&gt;&lt;div style=&quot;font-size: 11px;&quot;&gt;&lt;font style=&quot;font-size: 11px;&quot;&gt;&lt;br&gt;&lt;/font&gt;&lt;/div&gt;&lt;div style=&quot;font-size: 11px;&quot;&gt;&lt;font style=&quot;font-size: 11px;&quot;&gt;или перетащите сюда (drag and drop area)&lt;/font&gt;&lt;/div&gt;" style="rounded=0;whiteSpace=wrap;html=1;" vertex="1" parent="1">
          <mxGeometry x="690" y="-130" width="240" height="90" as="geometry" />
        </mxCell>
        <mxCell id="HpFK4DaO_GkTzXo1oFfo-2" value="&lt;font style=&quot;font-size: 9px;&quot;&gt;Выберите файлы&lt;/font&gt;" style="labelPosition=center;verticalLabelPosition=middle;align=center;html=1;shape=mxgraph.basic.shaded_button;dx=10;fillColor=#E6E6E6;strokeColor=none;whiteSpace=wrap;" vertex="1" parent="1">
          <mxGeometry x="755" y="-110" width="110" height="40" as="geometry" />
        </mxCell>
        <mxCell id="HpFK4DaO_GkTzXo1oFfo-3" value="&lt;font style=&quot;font-size: 9px;&quot;&gt;Жанр&lt;/font&gt;" style="labelPosition=center;verticalLabelPosition=middle;align=center;html=1;shape=mxgraph.basic.shaded_button;dx=10;fillColor=#E6E6E6;strokeColor=none;whiteSpace=wrap;" vertex="1" parent="1">
          <mxGeometry x="690" y="10" width="110" height="40" as="geometry" />
        </mxCell>
        <mxCell id="HpFK4DaO_GkTzXo1oFfo-4" value="&lt;font style=&quot;font-size: 9px;&quot;&gt;Аннотация&lt;/font&gt;" style="labelPosition=center;verticalLabelPosition=middle;align=center;html=1;shape=mxgraph.basic.shaded_button;dx=10;fillColor=#E6E6E6;strokeColor=none;whiteSpace=wrap;" vertex="1" parent="1">
          <mxGeometry x="820" y="10" width="110" height="40" as="geometry" />
        </mxCell>
        <mxCell id="HpFK4DaO_GkTzXo1oFfo-13" style="edgeStyle=orthogonalEdgeStyle;rounded=0;orthogonalLoop=1;jettySize=auto;html=1;" edge="1" parent="1" source="HpFK4DaO_GkTzXo1oFfo-6">
          <mxGeometry relative="1" as="geometry">
            <mxPoint x="1560" y="-35" as="targetPoint" />
          </mxGeometry>
        </mxCell>
        <mxCell id="HpFK4DaO_GkTzXo1oFfo-115" value="Файл подгружен&lt;div&gt;через &quot;выберите&lt;/div&gt;&lt;div&gt;файл&quot;&lt;/div&gt;" style="edgeLabel;html=1;align=center;verticalAlign=middle;resizable=0;points=[];" connectable="0" vertex="1" parent="HpFK4DaO_GkTzXo1oFfo-13">
          <mxGeometry x="-0.0573" y="1" relative="1" as="geometry">
            <mxPoint as="offset" />
          </mxGeometry>
        </mxCell>
        <mxCell id="HpFK4DaO_GkTzXo1oFfo-6" value="" style="rounded=0;whiteSpace=wrap;html=1;flipV=1;flipH=1;fillColor=none;strokeWidth=2;" vertex="1" parent="1">
          <mxGeometry x="1090" y="-150" width="360" height="230" as="geometry" />
        </mxCell>
        <mxCell id="HpFK4DaO_GkTzXo1oFfo-7" value="&lt;div style=&quot;font-size: 11px;&quot;&gt;&lt;font style=&quot;font-size: 11px;&quot;&gt;&lt;br&gt;&lt;/font&gt;&lt;/div&gt;&lt;div style=&quot;font-size: 11px;&quot;&gt;&lt;font style=&quot;font-size: 11px;&quot;&gt;&lt;br&gt;&lt;/font&gt;&lt;/div&gt;&lt;div style=&quot;font-size: 11px;&quot;&gt;&lt;font style=&quot;font-size: 11px;&quot;&gt;&lt;br&gt;&lt;/font&gt;&lt;/div&gt;&lt;div style=&quot;font-size: 11px;&quot;&gt;&lt;font style=&quot;font-size: 11px;&quot;&gt;&lt;br&gt;&lt;/font&gt;&lt;/div&gt;&lt;div style=&quot;font-size: 11px;&quot;&gt;&lt;font style=&quot;font-size: 11px;&quot;&gt;или перетащите сюда (drag and drop area)&lt;/font&gt;&lt;/div&gt;" style="rounded=0;whiteSpace=wrap;html=1;" vertex="1" parent="1">
          <mxGeometry x="1150" y="-130" width="240" height="90" as="geometry" />
        </mxCell>
        <mxCell id="HpFK4DaO_GkTzXo1oFfo-8" value="&lt;font style=&quot;font-size: 9px;&quot;&gt;Выберите файлы&lt;/font&gt;" style="labelPosition=center;verticalLabelPosition=middle;align=center;html=1;shape=mxgraph.basic.shaded_button;dx=10;fillColor=#E6E6E6;strokeColor=none;whiteSpace=wrap;" vertex="1" parent="1">
          <mxGeometry x="1215" y="-110" width="110" height="40" as="geometry" />
        </mxCell>
        <mxCell id="HpFK4DaO_GkTzXo1oFfo-9" value="&lt;font style=&quot;font-size: 9px;&quot;&gt;Жанр&lt;/font&gt;" style="labelPosition=center;verticalLabelPosition=middle;align=center;html=1;shape=mxgraph.basic.shaded_button;dx=10;fillColor=#E6E6E6;strokeColor=none;whiteSpace=wrap;" vertex="1" parent="1">
          <mxGeometry x="1150" y="10" width="110" height="40" as="geometry" />
        </mxCell>
        <mxCell id="HpFK4DaO_GkTzXo1oFfo-10" value="&lt;font style=&quot;font-size: 9px;&quot;&gt;Аннотация&lt;/font&gt;" style="labelPosition=center;verticalLabelPosition=middle;align=center;html=1;shape=mxgraph.basic.shaded_button;dx=10;fillColor=#E6E6E6;strokeColor=none;whiteSpace=wrap;" vertex="1" parent="1">
          <mxGeometry x="1280" y="10" width="110" height="40" as="geometry" />
        </mxCell>
        <mxCell id="HpFK4DaO_GkTzXo1oFfo-27" style="edgeStyle=orthogonalEdgeStyle;rounded=0;orthogonalLoop=1;jettySize=auto;html=1;entryX=0.5;entryY=0;entryDx=0;entryDy=0;" edge="1" parent="1" source="HpFK4DaO_GkTzXo1oFfo-11" target="HpFK4DaO_GkTzXo1oFfo-20">
          <mxGeometry relative="1" as="geometry" />
        </mxCell>
        <mxCell id="HpFK4DaO_GkTzXo1oFfo-11" value="" style="rounded=0;whiteSpace=wrap;html=1;opacity=70;fillColor=#dae8fc;strokeColor=#6c8ebf;" vertex="1" parent="1">
          <mxGeometry x="1090" y="-150" width="360" height="230" as="geometry" />
        </mxCell>
        <mxCell id="HpFK4DaO_GkTzXo1oFfo-12" value="Открытие проводника файлов" style="rounded=0;whiteSpace=wrap;html=1;" vertex="1" parent="1">
          <mxGeometry x="1165" y="-95" width="210" height="120" as="geometry" />
        </mxCell>
        <mxCell id="HpFK4DaO_GkTzXo1oFfo-44" style="edgeStyle=orthogonalEdgeStyle;rounded=0;orthogonalLoop=1;jettySize=auto;html=1;exitX=1;exitY=0.5;exitDx=0;exitDy=0;entryX=0.994;entryY=0.539;entryDx=0;entryDy=0;entryPerimeter=0;" edge="1" parent="1" source="HpFK4DaO_GkTzXo1oFfo-14" target="HpFK4DaO_GkTzXo1oFfo-74">
          <mxGeometry relative="1" as="geometry">
            <mxPoint x="2020" y="-185" as="targetPoint" />
          </mxGeometry>
        </mxCell>
        <mxCell id="HpFK4DaO_GkTzXo1oFfo-110" value="Нажата&amp;nbsp;&lt;div&gt;кнопка&lt;/div&gt;&lt;div&gt;&quot;жанр&quot;&lt;/div&gt;&lt;div&gt;жанр&amp;nbsp;&lt;/div&gt;&lt;div&gt;выводится&lt;/div&gt;" style="edgeLabel;html=1;align=center;verticalAlign=middle;resizable=0;points=[];" connectable="0" vertex="1" parent="HpFK4DaO_GkTzXo1oFfo-44">
          <mxGeometry x="0.7687" relative="1" as="geometry">
            <mxPoint x="-63" y="-6" as="offset" />
          </mxGeometry>
        </mxCell>
        <mxCell id="HpFK4DaO_GkTzXo1oFfo-45" style="edgeStyle=orthogonalEdgeStyle;rounded=0;orthogonalLoop=1;jettySize=auto;html=1;exitX=1;exitY=0.5;exitDx=0;exitDy=0;entryX=1.001;entryY=0.36;entryDx=0;entryDy=0;entryPerimeter=0;" edge="1" parent="1" source="HpFK4DaO_GkTzXo1oFfo-14" target="HpFK4DaO_GkTzXo1oFfo-84">
          <mxGeometry relative="1" as="geometry">
            <mxPoint x="2020" y="135.0588235294117" as="targetPoint" />
          </mxGeometry>
        </mxCell>
        <mxCell id="HpFK4DaO_GkTzXo1oFfo-106" style="edgeStyle=orthogonalEdgeStyle;rounded=0;orthogonalLoop=1;jettySize=auto;html=1;entryX=0;entryY=0.5;entryDx=0;entryDy=0;" edge="1" parent="1" source="HpFK4DaO_GkTzXo1oFfo-14" target="HpFK4DaO_GkTzXo1oFfo-99">
          <mxGeometry relative="1" as="geometry" />
        </mxCell>
        <mxCell id="HpFK4DaO_GkTzXo1oFfo-107" style="edgeStyle=orthogonalEdgeStyle;rounded=0;orthogonalLoop=1;jettySize=auto;html=1;entryX=0;entryY=0.5;entryDx=0;entryDy=0;" edge="1" parent="1" source="HpFK4DaO_GkTzXo1oFfo-14" target="HpFK4DaO_GkTzXo1oFfo-93">
          <mxGeometry relative="1" as="geometry" />
        </mxCell>
        <mxCell id="HpFK4DaO_GkTzXo1oFfo-111" value="нажата&amp;nbsp;&lt;div&gt;кнопка&lt;/div&gt;&lt;div&gt;&quot;жанр&quot;&lt;/div&gt;&lt;div&gt;жанр не&lt;/div&gt;&lt;div&gt;определился&lt;/div&gt;" style="edgeLabel;html=1;align=center;verticalAlign=middle;resizable=0;points=[];" connectable="0" vertex="1" parent="HpFK4DaO_GkTzXo1oFfo-107">
          <mxGeometry x="0.836" y="2" relative="1" as="geometry">
            <mxPoint x="-42" y="-13" as="offset" />
          </mxGeometry>
        </mxCell>
        <mxCell id="HpFK4DaO_GkTzXo1oFfo-14" value="" style="rounded=0;whiteSpace=wrap;html=1;flipV=1;flipH=1;fillColor=none;strokeWidth=2;" vertex="1" parent="1">
          <mxGeometry x="1560" y="-150" width="360" height="230" as="geometry" />
        </mxCell>
        <mxCell id="HpFK4DaO_GkTzXo1oFfo-17" value="&lt;font style=&quot;font-size: 9px;&quot;&gt;Жанр&lt;/font&gt;" style="labelPosition=center;verticalLabelPosition=middle;align=center;html=1;shape=mxgraph.basic.shaded_button;dx=10;fillColor=#E6E6E6;strokeColor=none;whiteSpace=wrap;" vertex="1" parent="1">
          <mxGeometry x="1670" y="-80" width="60" height="30" as="geometry" />
        </mxCell>
        <mxCell id="HpFK4DaO_GkTzXo1oFfo-18" value="&lt;font style=&quot;font-size: 9px;&quot;&gt;Аннотация&lt;/font&gt;" style="labelPosition=center;verticalLabelPosition=middle;align=center;html=1;shape=mxgraph.basic.shaded_button;dx=10;fillColor=#E6E6E6;strokeColor=none;whiteSpace=wrap;" vertex="1" parent="1">
          <mxGeometry x="1750" y="-80" width="52.5" height="30" as="geometry" />
        </mxCell>
        <mxCell id="HpFK4DaO_GkTzXo1oFfo-19" value="&lt;font style=&quot;font-size: 10px;&quot;&gt;название файла и его расширение&lt;/font&gt;" style="rounded=0;whiteSpace=wrap;html=1;fillColor=#d5e8d4;strokeColor=#82b366;" vertex="1" parent="1">
          <mxGeometry x="1620" y="-125" width="240" height="10" as="geometry" />
        </mxCell>
        <mxCell id="HpFK4DaO_GkTzXo1oFfo-20" value="" style="rounded=0;whiteSpace=wrap;html=1;flipV=1;flipH=1;fillColor=none;strokeWidth=2;" vertex="1" parent="1">
          <mxGeometry x="860" y="190" width="360" height="230" as="geometry" />
        </mxCell>
        <mxCell id="HpFK4DaO_GkTzXo1oFfo-21" value="&lt;div style=&quot;font-size: 11px;&quot;&gt;&lt;font style=&quot;font-size: 11px;&quot;&gt;&lt;br&gt;&lt;/font&gt;&lt;/div&gt;&lt;div style=&quot;font-size: 11px;&quot;&gt;&lt;font style=&quot;font-size: 11px;&quot;&gt;&lt;br&gt;&lt;/font&gt;&lt;/div&gt;&lt;div style=&quot;font-size: 11px;&quot;&gt;&lt;font style=&quot;font-size: 11px;&quot;&gt;&lt;br&gt;&lt;/font&gt;&lt;/div&gt;&lt;div style=&quot;font-size: 11px;&quot;&gt;&lt;font style=&quot;font-size: 11px;&quot;&gt;&lt;br&gt;&lt;/font&gt;&lt;/div&gt;&lt;div style=&quot;font-size: 11px;&quot;&gt;&lt;font style=&quot;font-size: 11px;&quot;&gt;или перетащите сюда (drag and drop area)&lt;/font&gt;&lt;/div&gt;" style="rounded=0;whiteSpace=wrap;html=1;" vertex="1" parent="1">
          <mxGeometry x="920" y="210" width="240" height="90" as="geometry" />
        </mxCell>
        <mxCell id="HpFK4DaO_GkTzXo1oFfo-22" value="&lt;font style=&quot;font-size: 9px;&quot;&gt;Выберите файлы&lt;/font&gt;" style="labelPosition=center;verticalLabelPosition=middle;align=center;html=1;shape=mxgraph.basic.shaded_button;dx=10;fillColor=#E6E6E6;strokeColor=none;whiteSpace=wrap;" vertex="1" parent="1">
          <mxGeometry x="985" y="230" width="110" height="40" as="geometry" />
        </mxCell>
        <mxCell id="HpFK4DaO_GkTzXo1oFfo-23" value="&lt;font style=&quot;font-size: 9px;&quot;&gt;Жанр&lt;/font&gt;" style="labelPosition=center;verticalLabelPosition=middle;align=center;html=1;shape=mxgraph.basic.shaded_button;dx=10;fillColor=#E6E6E6;strokeColor=none;whiteSpace=wrap;" vertex="1" parent="1">
          <mxGeometry x="920" y="350" width="110" height="40" as="geometry" />
        </mxCell>
        <mxCell id="HpFK4DaO_GkTzXo1oFfo-24" value="&lt;font style=&quot;font-size: 9px;&quot;&gt;Аннотация&lt;/font&gt;" style="labelPosition=center;verticalLabelPosition=middle;align=center;html=1;shape=mxgraph.basic.shaded_button;dx=10;fillColor=#E6E6E6;strokeColor=none;whiteSpace=wrap;" vertex="1" parent="1">
          <mxGeometry x="1050" y="350" width="110" height="40" as="geometry" />
        </mxCell>
        <mxCell id="HpFK4DaO_GkTzXo1oFfo-25" value="&lt;font style=&quot;font-size: 10px;&quot;&gt;ошибка о подгрузке файла&lt;/font&gt;" style="rounded=0;whiteSpace=wrap;html=1;fillColor=#f8cecc;strokeColor=#b85450;" vertex="1" parent="1">
          <mxGeometry x="920" y="310" width="240" height="10" as="geometry" />
        </mxCell>
        <mxCell id="HpFK4DaO_GkTzXo1oFfo-28" style="edgeStyle=orthogonalEdgeStyle;rounded=0;orthogonalLoop=1;jettySize=auto;html=1;exitX=0.5;exitY=0;exitDx=0;exitDy=0;entryX=0.449;entryY=0.999;entryDx=0;entryDy=0;entryPerimeter=0;" edge="1" parent="1" source="HwtGYQ5i5tDPhQxPfWXK-1" target="HpFK4DaO_GkTzXo1oFfo-14">
          <mxGeometry relative="1" as="geometry">
            <Array as="points">
              <mxPoint x="810" y="-240" />
              <mxPoint x="1758" y="-240" />
            </Array>
          </mxGeometry>
        </mxCell>
        <mxCell id="HpFK4DaO_GkTzXo1oFfo-31" value="Файл загружен через drag and drop" style="edgeLabel;html=1;align=center;verticalAlign=middle;resizable=0;points=[];" connectable="0" vertex="1" parent="HpFK4DaO_GkTzXo1oFfo-28">
          <mxGeometry x="0.077" relative="1" as="geometry">
            <mxPoint x="-3" y="-10" as="offset" />
          </mxGeometry>
        </mxCell>
        <mxCell id="HpFK4DaO_GkTzXo1oFfo-72" value="&lt;font style=&quot;font-size: 8px;&quot;&gt;кнопка отмены&lt;/font&gt;" style="labelPosition=center;verticalLabelPosition=middle;align=center;html=1;shape=mxgraph.basic.shaded_button;dx=10;fillColor=#E6E6E6;strokeColor=none;whiteSpace=wrap;" vertex="1" parent="1">
          <mxGeometry x="1695" y="-110" width="90" height="10" as="geometry" />
        </mxCell>
        <mxCell id="HpFK4DaO_GkTzXo1oFfo-74" value="" style="rounded=0;whiteSpace=wrap;html=1;flipV=1;flipH=1;fillColor=none;strokeWidth=2;" vertex="1" parent="1">
          <mxGeometry x="2060" y="-340" width="360" height="230" as="geometry" />
        </mxCell>
        <mxCell id="HpFK4DaO_GkTzXo1oFfo-75" value="&lt;font style=&quot;font-size: 9px;&quot;&gt;Жанр&lt;/font&gt;" style="labelPosition=center;verticalLabelPosition=middle;align=center;html=1;shape=mxgraph.basic.shaded_button;dx=10;fillColor=#E6E6E6;strokeColor=none;whiteSpace=wrap;" vertex="1" parent="1">
          <mxGeometry x="2170" y="-270" width="60" height="30" as="geometry" />
        </mxCell>
        <mxCell id="HpFK4DaO_GkTzXo1oFfo-76" value="&lt;font style=&quot;font-size: 9px;&quot;&gt;Аннотация&lt;/font&gt;" style="labelPosition=center;verticalLabelPosition=middle;align=center;html=1;shape=mxgraph.basic.shaded_button;dx=10;fillColor=#E6E6E6;strokeColor=none;whiteSpace=wrap;" vertex="1" parent="1">
          <mxGeometry x="2250" y="-270" width="52.5" height="30" as="geometry" />
        </mxCell>
        <mxCell id="HpFK4DaO_GkTzXo1oFfo-77" value="&lt;font style=&quot;font-size: 10px;&quot;&gt;название файла и его расширение&lt;/font&gt;" style="rounded=0;whiteSpace=wrap;html=1;fillColor=#d5e8d4;strokeColor=#82b366;" vertex="1" parent="1">
          <mxGeometry x="2120" y="-315" width="240" height="10" as="geometry" />
        </mxCell>
        <mxCell id="HpFK4DaO_GkTzXo1oFfo-78" value="&lt;font style=&quot;font-size: 8px;&quot;&gt;кнопка отмены&lt;/font&gt;" style="labelPosition=center;verticalLabelPosition=middle;align=center;html=1;shape=mxgraph.basic.shaded_button;dx=10;fillColor=#E6E6E6;strokeColor=none;whiteSpace=wrap;" vertex="1" parent="1">
          <mxGeometry x="2195" y="-300" width="90" height="10" as="geometry" />
        </mxCell>
        <mxCell id="HpFK4DaO_GkTzXo1oFfo-84" value="" style="rounded=0;whiteSpace=wrap;html=1;flipV=1;flipH=1;fillColor=none;strokeWidth=2;" vertex="1" parent="1">
          <mxGeometry x="2060" y="50" width="360" height="230" as="geometry" />
        </mxCell>
        <mxCell id="HpFK4DaO_GkTzXo1oFfo-85" value="&lt;font style=&quot;font-size: 9px;&quot;&gt;Жанр&lt;/font&gt;" style="labelPosition=center;verticalLabelPosition=middle;align=center;html=1;shape=mxgraph.basic.shaded_button;dx=10;fillColor=#E6E6E6;strokeColor=none;whiteSpace=wrap;" vertex="1" parent="1">
          <mxGeometry x="2170" y="120" width="60" height="30" as="geometry" />
        </mxCell>
        <mxCell id="HpFK4DaO_GkTzXo1oFfo-86" value="&lt;font style=&quot;font-size: 9px;&quot;&gt;Аннотация&lt;/font&gt;" style="labelPosition=center;verticalLabelPosition=middle;align=center;html=1;shape=mxgraph.basic.shaded_button;dx=10;fillColor=#E6E6E6;strokeColor=none;whiteSpace=wrap;" vertex="1" parent="1">
          <mxGeometry x="2250" y="120" width="52.5" height="30" as="geometry" />
        </mxCell>
        <mxCell id="HpFK4DaO_GkTzXo1oFfo-87" value="&lt;font style=&quot;font-size: 10px;&quot;&gt;название файла и его расширение&lt;/font&gt;" style="rounded=0;whiteSpace=wrap;html=1;fillColor=#d5e8d4;strokeColor=#82b366;" vertex="1" parent="1">
          <mxGeometry x="2120" y="75" width="240" height="10" as="geometry" />
        </mxCell>
        <mxCell id="HpFK4DaO_GkTzXo1oFfo-88" value="&lt;font style=&quot;font-size: 8px;&quot;&gt;кнопка отмены&lt;/font&gt;" style="labelPosition=center;verticalLabelPosition=middle;align=center;html=1;shape=mxgraph.basic.shaded_button;dx=10;fillColor=#E6E6E6;strokeColor=none;whiteSpace=wrap;" vertex="1" parent="1">
          <mxGeometry x="2195" y="90" width="90" height="10" as="geometry" />
        </mxCell>
        <mxCell id="HpFK4DaO_GkTzXo1oFfo-89" value="Поле для вывода жанра" style="rounded=0;whiteSpace=wrap;html=1;" vertex="1" parent="1">
          <mxGeometry x="2080" y="-220" width="320" height="90" as="geometry" />
        </mxCell>
        <mxCell id="HpFK4DaO_GkTzXo1oFfo-90" value="Поле для вывода аннотации" style="rounded=0;whiteSpace=wrap;html=1;" vertex="1" parent="1">
          <mxGeometry x="2080" y="170" width="320" height="60" as="geometry" />
        </mxCell>
        <mxCell id="HpFK4DaO_GkTzXo1oFfo-92" value="нужна ли кнопка для скачивания аннотации в каком-то формате" style="shape=note;whiteSpace=wrap;html=1;backgroundOutline=1;darkOpacity=0.05;fillColor=#ffe6cc;strokeColor=#d79b00;size=14;" vertex="1" parent="1">
          <mxGeometry x="2130" y="240" width="230" height="30" as="geometry" />
        </mxCell>
        <mxCell id="HpFK4DaO_GkTzXo1oFfo-93" value="" style="rounded=0;whiteSpace=wrap;html=1;flipV=1;flipH=1;fillColor=none;strokeWidth=2;" vertex="1" parent="1">
          <mxGeometry x="2060" y="-590" width="360" height="230" as="geometry" />
        </mxCell>
        <mxCell id="HpFK4DaO_GkTzXo1oFfo-94" value="&lt;font style=&quot;font-size: 9px;&quot;&gt;Жанр&lt;/font&gt;" style="labelPosition=center;verticalLabelPosition=middle;align=center;html=1;shape=mxgraph.basic.shaded_button;dx=10;fillColor=#E6E6E6;strokeColor=none;whiteSpace=wrap;" vertex="1" parent="1">
          <mxGeometry x="2170" y="-520" width="60" height="30" as="geometry" />
        </mxCell>
        <mxCell id="HpFK4DaO_GkTzXo1oFfo-95" value="&lt;font style=&quot;font-size: 9px;&quot;&gt;Аннотация&lt;/font&gt;" style="labelPosition=center;verticalLabelPosition=middle;align=center;html=1;shape=mxgraph.basic.shaded_button;dx=10;fillColor=#E6E6E6;strokeColor=none;whiteSpace=wrap;" vertex="1" parent="1">
          <mxGeometry x="2250" y="-520" width="52.5" height="30" as="geometry" />
        </mxCell>
        <mxCell id="HpFK4DaO_GkTzXo1oFfo-96" value="&lt;font style=&quot;font-size: 10px;&quot;&gt;название файла и его расширение&lt;/font&gt;" style="rounded=0;whiteSpace=wrap;html=1;fillColor=#d5e8d4;strokeColor=#82b366;" vertex="1" parent="1">
          <mxGeometry x="2120" y="-565" width="240" height="10" as="geometry" />
        </mxCell>
        <mxCell id="HpFK4DaO_GkTzXo1oFfo-97" value="&lt;font style=&quot;font-size: 8px;&quot;&gt;кнопка отмены&lt;/font&gt;" style="labelPosition=center;verticalLabelPosition=middle;align=center;html=1;shape=mxgraph.basic.shaded_button;dx=10;fillColor=#E6E6E6;strokeColor=none;whiteSpace=wrap;" vertex="1" parent="1">
          <mxGeometry x="2195" y="-550" width="90" height="10" as="geometry" />
        </mxCell>
        <mxCell id="HpFK4DaO_GkTzXo1oFfo-98" value="ошибка вывода жанра" style="rounded=0;whiteSpace=wrap;html=1;fillColor=#f8cecc;strokeColor=#b85450;" vertex="1" parent="1">
          <mxGeometry x="2080" y="-470" width="320" height="90" as="geometry" />
        </mxCell>
        <mxCell id="HpFK4DaO_GkTzXo1oFfo-99" value="" style="rounded=0;whiteSpace=wrap;html=1;flipV=1;flipH=1;fillColor=none;strokeWidth=2;" vertex="1" parent="1">
          <mxGeometry x="2060" y="300" width="360" height="230" as="geometry" />
        </mxCell>
        <mxCell id="HpFK4DaO_GkTzXo1oFfo-100" value="&lt;font style=&quot;font-size: 9px;&quot;&gt;Жанр&lt;/font&gt;" style="labelPosition=center;verticalLabelPosition=middle;align=center;html=1;shape=mxgraph.basic.shaded_button;dx=10;fillColor=#E6E6E6;strokeColor=none;whiteSpace=wrap;" vertex="1" parent="1">
          <mxGeometry x="2170" y="370" width="60" height="30" as="geometry" />
        </mxCell>
        <mxCell id="HpFK4DaO_GkTzXo1oFfo-101" value="&lt;font style=&quot;font-size: 9px;&quot;&gt;Аннотация&lt;/font&gt;" style="labelPosition=center;verticalLabelPosition=middle;align=center;html=1;shape=mxgraph.basic.shaded_button;dx=10;fillColor=#E6E6E6;strokeColor=none;whiteSpace=wrap;" vertex="1" parent="1">
          <mxGeometry x="2250" y="370" width="52.5" height="30" as="geometry" />
        </mxCell>
        <mxCell id="HpFK4DaO_GkTzXo1oFfo-102" value="&lt;font style=&quot;font-size: 10px;&quot;&gt;название файла и его расширение&lt;/font&gt;" style="rounded=0;whiteSpace=wrap;html=1;fillColor=#d5e8d4;strokeColor=#82b366;" vertex="1" parent="1">
          <mxGeometry x="2120" y="325" width="240" height="10" as="geometry" />
        </mxCell>
        <mxCell id="HpFK4DaO_GkTzXo1oFfo-103" value="&lt;font style=&quot;font-size: 8px;&quot;&gt;кнопка отмены&lt;/font&gt;" style="labelPosition=center;verticalLabelPosition=middle;align=center;html=1;shape=mxgraph.basic.shaded_button;dx=10;fillColor=#E6E6E6;strokeColor=none;whiteSpace=wrap;" vertex="1" parent="1">
          <mxGeometry x="2195" y="340" width="90" height="10" as="geometry" />
        </mxCell>
        <mxCell id="HpFK4DaO_GkTzXo1oFfo-104" value="ошибка вывода аннотации" style="rounded=0;whiteSpace=wrap;html=1;fillColor=#f8cecc;strokeColor=#b85450;" vertex="1" parent="1">
          <mxGeometry x="2080" y="420" width="320" height="60" as="geometry" />
        </mxCell>
        <mxCell id="HpFK4DaO_GkTzXo1oFfo-108" style="edgeStyle=orthogonalEdgeStyle;rounded=0;orthogonalLoop=1;jettySize=auto;html=1;exitX=0.5;exitY=0;exitDx=0;exitDy=0;entryX=0.378;entryY=0.998;entryDx=0;entryDy=0;entryPerimeter=0;" edge="1" parent="1" source="HpFK4DaO_GkTzXo1oFfo-14" target="HwtGYQ5i5tDPhQxPfWXK-1">
          <mxGeometry relative="1" as="geometry">
            <Array as="points">
              <mxPoint x="1740" y="-190" />
              <mxPoint x="854" y="-190" />
            </Array>
          </mxGeometry>
        </mxCell>
        <mxCell id="HpFK4DaO_GkTzXo1oFfo-109" value="Пользователь нажал кнопку отмены загрузки файла" style="edgeLabel;html=1;align=center;verticalAlign=middle;resizable=0;points=[];" connectable="0" vertex="1" parent="HpFK4DaO_GkTzXo1oFfo-108">
          <mxGeometry x="0.0015" y="-4" relative="1" as="geometry">
            <mxPoint y="-6" as="offset" />
          </mxGeometry>
        </mxCell>
        <mxCell id="HpFK4DaO_GkTzXo1oFfo-112" value="&lt;font style=&quot;font-size: 11px;&quot;&gt;Нажата&lt;/font&gt;&lt;div style=&quot;font-size: 11px;&quot;&gt;&lt;font style=&quot;font-size: 11px;&quot;&gt;кнопка&lt;/font&gt;&lt;/div&gt;&lt;div style=&quot;font-size: 11px;&quot;&gt;&lt;font style=&quot;font-size: 11px;&quot;&gt;&quot;аннотация&quot;&lt;/font&gt;&lt;/div&gt;&lt;div style=&quot;font-size: 11px;&quot;&gt;&lt;font style=&quot;font-size: 11px;&quot;&gt;аннотация&amp;nbsp;&lt;/font&gt;&lt;/div&gt;&lt;div style=&quot;font-size: 11px;&quot;&gt;&lt;font style=&quot;font-size: 11px;&quot;&gt;была&lt;/font&gt;&lt;/div&gt;&lt;div style=&quot;font-size: 11px;&quot;&gt;&lt;font style=&quot;font-size: 11px;&quot;&gt;создана&lt;/font&gt;&lt;/div&gt;" style="text;html=1;align=center;verticalAlign=middle;resizable=0;points=[];autosize=1;strokeColor=none;fillColor=default;" vertex="1" parent="1">
          <mxGeometry x="1945" y="150" width="80" height="90" as="geometry" />
        </mxCell>
        <mxCell id="HpFK4DaO_GkTzXo1oFfo-113" value="Нажата&lt;div&gt;кнопка&lt;/div&gt;&lt;div&gt;&quot;аннотация&quot;&lt;/div&gt;&lt;div&gt;аннотация&lt;/div&gt;&lt;div&gt;не была&lt;/div&gt;&lt;div&gt;сгенерирована&lt;/div&gt;" style="text;html=1;align=center;verticalAlign=middle;resizable=0;points=[];autosize=1;strokeColor=none;fillColor=default;" vertex="1" parent="1">
          <mxGeometry x="1930" y="335" width="110" height="100" as="geometry" />
        </mxCell>
      </root>
    </mxGraphModel>
  </diagram>
</mxfile>
